<?xml version="1.0" encoding="UTF-8"?>
<!DOCTYPE svg PUBLIC "-//W3C//DTD SVG 1.1//EN" "http://www.w3.org/Graphics/SVG/1.1/DTD/svg11.dtd">
<!-- Creator: CorelDRAW 2021.5 -->
<svg xmlns="http://www.w3.org/2000/svg" xml:space="preserve" width="4.00577in" height="1.35061in" version="1.1" style="shape-rendering:geometricPrecision; text-rendering:geometricPrecision; image-rendering:optimizeQuality; fill-rule:evenodd; clip-rule:evenodd"
viewBox="0 0 4004.98 1350.34"
 xmlns:xlink="http://www.w3.org/1999/xlink"
 xmlns:xodm="http://www.corel.com/coreldraw/odm/2003">
 <defs>
  <style type="text/css">
   <![CDATA[
    .str0 {stroke:#E5A77C;stroke-width:14;stroke-miterlimit:2.61313}
    .str1 {stroke:#E5A77C;stroke-width:10;stroke-miterlimit:2.61313}
    .fil1 {fill:none}
    .fil0 {fill:#A60303}
    .fil2 {fill:#A60303;fill-rule:nonzero}
   ]]>
  </style>
 </defs>
 <g id="Layer_x0020_1">
  <metadata id="CorelCorpID_0Corel-Layer"/>
  <g id="_2705073498672">
   <path class="fil0 str0" d="M847.25 382.66l0 115.3 0 1.08 0 118.19 0 8.48 0 100.65c0,14.52 3.63,25.9 10.89,34.12 7.26,8.23 18.63,14.76 34.12,19.6l0 18.87 -280.24 0 0 -18.87c30.01,-7.74 45.01,-25.65 45.01,-53.73l0 -100.65 0 -8.48 0 -118.08 0 -1.07 0 -115.41 0 -1.6 0 -302.14c0,-27.1 -15.01,-44.53 -45.01,-52.27l0 -18.87 280.24 0 0 18.87c-30.01,8.71 -45.01,26.14 -45.01,52.27l0 302.14 0 1.6z"/>
   <path class="fil0 str0" d="M1888.33 382.66l0 114.67 0 1.13 0 118.77 0.48 0 0 109.13c0,26.14 16.04,44.04 48.12,53.73l0 18.87 -195 0 -192.55 -181.73 3.17 0 -112.19 -118.52 -1.05 0 -118.73 -116.05 -1.64 0 -107.25 -104.82 0 103.22 0 1.6 0 115.08 0 1.1 0 118.39 0 8.48 0 100.65c0,26.14 15.49,44.04 46.47,53.73l0 18.87 -264.27 0 0 -18.87c30.01,-7.74 45.01,-25.65 45.01,-53.73l0 -100.65 0 -8.48 0 -118.3 0 -1.09 0 -115.18 0 -1.6 0 -302.14c0,-27.1 -15.01,-44.53 -45.01,-52.27l0 -18.87c205.64,-0.76 205.64,-0.76 205.64,-0.76l379.23 374.05 1.62 0 117.99 116.38 1.14 0 16.02 17.08 0 -15.97 0 -1.12 0 -114.77 0 -1.6 0 -302.14c0,-27.1 -15,-44.53 -45.01,-52.27l0 -18.87 264.27 0 0 18.87c-30.98,7.75 -46.47,25.17 -46.47,52.27l0 302.14 0 1.6z"/>
   <path class="fil0 str0" d="M3408.67 382.66l-50.63 69.65c-0.31,16.18 -0.6,31.26 -0.87,45.32 -1,52.62 -1.67,90.98 -2.14,119.6 -2.61,161.09 1.61,13.13 -5.07,354.56 -13.83,45.08 152.22,71.69 -22.54,72.44 -464.8,-9.21 -2705.48,-107.57 -2952.39,-34.56 139.32,149.09 0,0 139.32,149.09 -156.06,-103.87 0,0 -156.06,-103.87l43.05 92.01c-64.61,-66.32 0,0 -64.61,-66.32l11.6 209.05c-14.12,-54.37 0,0 -63.13,-243.1 -138.91,169.44 0,0 -138.91,169.44l86.48 -173.78 -78.45 47.47c57.96,-67.04 0,0 57.96,-67.04l-193.14 53.39c189.92,-102.24 0,0 189.92,-102.24l-205.81 -109.27 232.17 75.48c-65.31,-78.2 0,0 -65.31,-78.2 49.43,32.27 0,0 49.43,32.27l-77.52 -198.99c125.02,177.7 0,0 125.02,177.7l-9.63 -122.98c3.96,30.53 22.21,108.59 30.18,141.3l63.14 -219.68c-7.55,230.81 -7.55,230.81 -7.55,230.81 196.61,-125.25 0,0 196.61,-125.25 0,0 -138.51,139.48 -138.51,139.48l72.65 -9.84c-21.12,9.93 -66.5,39.17 -86.78,51.4 1495.83,-25.84 1277.8,-24.85 2773.63,-50.69 0,0 -0.93,-68.83 4.18,-290.1 0.83,-35.74 1.81,-75.45 2.98,-119.49 0.4,-15.23 0.83,-30.98 1.28,-47.26l-49.27 -67.82 -1.16 0 -184.79 -254.38c-22.26,-30.01 -41.62,-53.24 -58.08,-69.69 -16.46,-16.46 -37.27,-27.1 -62.44,-31.95l0 -18.87 357.19 0 0 19.6c-15.49,3.87 -26.86,8.71 -34.12,14.28 -7.26,5.57 -10.89,14.28 -10.89,26.38 0,12.82 2.17,23.23 6.53,30.73 4.36,7.5 13.31,20.33 26.86,38.24l114.71 165.53 111.8 -165.77c8.71,-12.1 16.46,-23.72 23.24,-34.85 6.77,-10.89 10.16,-21.05 10.16,-30.01 0,-12.1 -4.36,-21.54 -13.07,-28.55 -8.71,-7.26 -19.36,-12.58 -31.95,-16.7l0 -18.87 339.77 0 0 18.87c-25.17,4.84 -45.98,15.25 -62.44,31.22 -16.46,15.97 -34.53,40.02 -56.63,70.42l-184.89 254.38 -1.16 0z"/>
   <path class="fil0 str0" d="M2813.98 97.8c41.14,36.78 71.39,81.55 90.75,134.31 16.93,46.14 26.46,95.79 28.58,148.96l0.06 0c0.26,7.11 0.4,14.27 0.4,21.5 0,34 -2.43,65.77 -7.28,95.31 -7.38,44.93 -20.36,84.72 -38.96,119.35 -17.57,32.74 -40.15,60.89 -67.74,84.44 -75.99,64.86 -182.71,97.28 -320.17,97.28l-466.09 0 0 -18.87c30.01,-7.74 45.01,-25.65 45.01,-53.73l0 -100.65 0 -8.48 0 -118.88 0 -1.14 0 -114.55 0 -1.6 0 -302.14c0,-27.1 -15,-44.53 -45.01,-52.27l0 -18.87 466.09 0c67.76,0 126.81,5.81 177.14,17.43 50.34,11.62 96.08,35.82 137.22,72.6zm-545.23 283.27l0 1.6 0 114.43 0 1.15 0 118.99 0 8.48 0 28.05 203.28 0c67.13,0 121.75,-12.21 163.88,-36.53 12.55,-7.24 23.99,-15.55 34.32,-24.94 26.25,-23.85 44.84,-55.27 55.78,-94.31 7.83,-27.91 11.74,-59.71 11.74,-95.42 0,-6.77 -0.16,-13.4 -0.46,-19.9l-0.08 0c-3.67,-73.08 -26.48,-128.82 -68.44,-167.02 -45.98,-41.87 -111.56,-62.68 -196.75,-62.68l-203.28 0 0 228.09z"/>
   <path class="fil1" d="M2268.75 381.06l0 1.6 0 114.43 0 1.15 0 118.99 0 8.48 0 28.05 203.28 0c67.13,0 121.75,-12.21 163.88,-36.53 12.55,-7.24 23.99,-15.55 34.32,-24.94 26.25,-23.85 44.84,-55.27 55.78,-94.31 7.83,-27.91 11.74,-59.71 11.74,-95.42 0,-6.77 -0.16,-13.4 -0.46,-19.9l-0.08 0c-3.67,-73.08 -26.48,-128.82 -68.44,-167.02 -45.98,-41.87 -111.56,-62.68 -196.75,-62.68l-203.28 0 0 228.09z"/>
   <path class="fil0 str1" d="M3518.59 1113.09c-78.69,-3.12 -118.12,23.26 -118.12,69.84 0,46.52 39.37,69.78 118.12,69.78l13.95 0c23.15,0 34.73,6.84 34.73,20.52 0,13.67 -11.57,20.51 -34.73,20.51l-132.07 0 0 49.27 132.07 0c78.75,0 118.12,-23.26 118.12,-69.78 0,-46.52 -39.37,-69.78 -118.12,-69.78l-13.95 0c-23.15,0 -34.73,-6.84 -34.73,-20.51 0,-13.73 11.6,-19.36 34.73,-20.57 360.81,-18.89 0,0 360.81,-18.89 -6.34,4.11 -17.43,11.94 -24.03,15.27l22.71 -3.3c-43.29,46.81 0,0 -43.29,46.81 61.45,-42.03 1.59,-0.96 61.45,-42.03 -2.36,77.46 0,0 -2.36,77.46l19.74 -73.73c2.84,12.5 9.84,44.75 9.67,50.68l-3.25 -44.53c39.08,59.64 0,0 39.08,59.64l-24.23 -66.78c15.45,10.83 0,0 15.45,10.83 -20.41,-26.25 0,0 -20.41,-26.25l72.56 25.33 -60.33 -34.62c55.37,-36.36 0,0 55.37,-36.36l-60.37 17.92 7.9 -11.07c0.49,-0.67 1.23,-1.78 1.64,-2.34 0.41,-0.57 1.15,-1.55 1.64,-2.38l-17.58 9.22 27.03 -58.32c-43.3,50.43 0,0 -44.97,50.43l-18.18 -75.16 3.63 70.16 -11.75 -11.31c-3.98,-4.87 -4.69,-6.64 -8.44,-10.95l13.46 30.88c-48.77,-34.86 0,0 -48.77,-34.86 43.54,50.04 0,0 43.54,50.04l-9.86 3.13c-357.85,-14.19 0,0 -357.85,-14.19z"/>
   <path class="fil2 str1" d="M1519.49 1255.05l0 88.49 -68.96 -1.04 0 -229.91 145.43 2.84c78.74,1.54 118.12,23.26 118.12,69.84 0,36.65 -24.48,58.85 -73.43,66.64l98.67 93.43 -98.39 0 -95.35 -90.29 -26.09 0zm0 -49.27l76.47 0c23.15,0 34.73,-6.84 34.73,-20.51 0,-13.73 -11.58,-20.57 -34.73,-20.57l-76.47 0 0 41.08z"/>
   <path class="fil2 str1" d="M1060.13 1252.71c-78.74,0 -118.12,-23.26 -118.12,-69.78 0,-46.58 39.37,-69.84 118.12,-69.84l132.07 0 -27.8 49.27 -104.27 0c-23.15,0 -34.72,6.84 -34.72,20.57 0,13.67 11.57,20.51 34.72,20.51l13.95 0c78.75,0 118.12,23.26 118.12,69.78 0,46.52 -39.37,69.78 -118.12,69.78l-132.07 0 30.43 -49.27 101.64 0c23.15,0 34.73,-6.84 34.73,-20.51 0,-13.67 -11.58,-20.52 -34.73,-20.52l-13.95 0z"/>
   <polygon class="fil2 str1" points="657.31,1343.33 790.72,1106.45 933.66,1343.02 856.03,1343.02 795.48,1224.89 728.22,1341.66 "/>
   <polygon class="fil2 str1" points="475.2,1112 558.64,1107.85 557.12,1275.92 670.55,1275.92 642.75,1339.73 474.02,1339.73 "/>
   <path class="fil2 str1" d="M1208.77 1163.27l0 -50.18 220.46 0 -38.04 49.27c-60.8,0 -121.65,0.25 -182.42,0.91z"/>
   <path class="fil2 str1" d="M1292.17 1293.74l138.99 0 -27.8 49.27 -194.6 0 0 -138.04c83.4,-1.52 0,0 83.4,-1.52l111.19 0 -27.8 49.27 -83.39 0 0 41.03z"/>
   <line class="fil1 str1" x1="1208.77" y1="1164.37" x2="1208.77" y2= "1164.37" />
   <polygon class="fil2 str1" points="3187.11,1215.88 3187.11,1343.01 3103.71,1343.01 3103.71,1113.09 3197.64,1113.09 3298.31,1240.21 3297.78,1114.12 3381.7,1113.09 3381.7,1343.01 3287.68,1343.01 "/>
   <path class="fil2 str1" d="M2978.03 1113.09l97.34 0 -27.8 49.27 -69.54 0c-30.74,0 -56.93,6.45 -78.65,19.22 -21.63,12.84 -32.54,28.31 -32.54,46.46 0,18.16 10.91,33.69 32.54,46.46 21.72,12.84 47.91,19.22 78.65,19.22l13.95 0 0 -30.54 -47.37 -0.4 30.59 -51.88 87.36 0 12.81 -0.13 0 0.13 0 53.28 0 78.81 -97.34 0c-53.7,0 -99.62,-11.21 -137.58,-33.69 -37.95,-22.42 -56.93,-49.49 -56.93,-81.27 0,-31.72 18.98,-58.85 56.93,-81.27 37.95,-22.42 83.87,-33.68 137.58,-33.68z"/>
   <polygon class="fil2 str1" points="2762.87,1343.01 2679.47,1343.01 2679.47,1129.52 2762.87,1113.09 "/>
   <path class="fil2 str1" d="M2517.69 1252.71c-78.75,0 -118.12,-23.26 -118.12,-69.78 0,-46.58 39.37,-69.84 118.12,-69.84l132.07 0 -27.8 49.27 -104.27 0c-23.15,0 -34.73,6.84 -34.73,20.57 0,13.67 11.58,20.51 34.73,20.51l13.95 0c78.75,0 118.12,23.26 118.12,69.78 0,46.52 -39.37,69.78 -118.12,69.78l-132.07 0 0 -49.27 132.07 0c23.15,0 34.73,-6.84 34.73,-20.51 0,-13.67 -11.57,-20.52 -34.73,-20.52l-13.95 0z"/>
   <path class="fil2 str1" d="M1949.46 1113.09c53.8,0 99.62,11.27 137.67,33.68 37.95,22.42 56.93,49.55 56.93,81.27 0,31.78 -18.97,58.85 -56.93,81.27 -38.04,22.48 -83.87,33.69 -137.67,33.69l-97.25 0 0 -229.91 97.25 0zm0 180.64c30.84,0 57.02,-6.39 78.65,-19.22 21.72,-12.78 32.54,-28.3 32.54,-46.46 0,-18.16 -10.82,-33.63 -32.54,-46.46 -21.63,-12.78 -47.82,-19.22 -78.65,-19.22l-13.85 0 0 131.38 13.85 0z"/>
   <path class="fil2 str1" d="M2159.37 1163.27l0 -50.18 220.46 0 -38.04 49.27c-60.8,0 -121.65,0.25 -182.42,0.91z"/>
   <path class="fil2 str1" d="M2242.77 1293.74l139 0 -27.8 49.27 -194.59 0 0 -138.04c83.4,-1.52 0,0 83.4,-1.52l111.19 0 -27.8 49.27 -83.4 0 0 41.03z"/>
   <line class="fil1 str1" x1="2159.37" y1="1164.37" x2="2159.37" y2= "1164.37" />
  </g>
 </g>
</svg>
